<?xml version="1.0" encoding="UTF-8"?>
<svg width="456px" height="456px" viewBox="0 0 456 456" version="1.1" xmlns="http://www.w3.org/2000/svg" xmlns:xlink="http://www.w3.org/1999/xlink">
    <!-- Generator: Sketch 55.2 (78181) - https://sketchapp.com -->
    <title>cent</title>
    <desc>Created with Sketch.</desc>
    <g id="Ideas" stroke="none" stroke-width="1" fill="none" fill-rule="evenodd">
        <g id="cent" fill="#474747" fill-rule="nonzero">
            <path d="M228,0.22 C102.2,0.22 0.219,102.2 0.219,228.001 C0.219,353.8 102.2,455.78 228,455.78 C353.8,455.78 455.781,353.8 455.781,228.001 C455.781,102.2 353.801,0.22 228,0.22 Z M228.219554,434.22 C117.211579,434.22 27.219,341.766958 27.219,227.721138 C27.219,113.673042 117.211579,21.22 228.219554,21.22 C339.227528,21.22 429.219,113.673042 429.219,227.721138 C429.219,341.766958 339.227528,434.22 228.219554,434.22 Z" id="Shape"></path>
            <path d="M301.031,249.121 C298.023,246.195 294.426,244.73 290.234,244.73 C285.328,244.73 281.769,246.173 279.554,249.06 C277.339,251.949 275.48,255.687 273.978,260.273 C270.417,270.003 265.138,277.378 258.138,282.402 C251.138,287.426 242.574,289.937 232.449,289.937 C228.684,289.937 225.122,289.558 221.743,288.837 L262.276,177.243 C266.154,181.098 269.665,185.937 272.791,191.81 C275.561,197.031 278.072,200.71 280.326,202.845 C282.58,204.982 285.963,206.048 290.471,206.048 C294.506,206.048 297.946,204.507 300.793,201.421 C303.641,198.337 305.064,194.776 305.064,190.743 C305.064,183.386 302.138,175.575 296.285,167.307 C290.798,159.563 283.056,152.981 273.056,147.561 L288.174,105.939 C289.309,102.831 287.642,99.718 285.159,98.812 L267.216,92.261 C264.736,91.355 262.068,92.884 260.933,95.992 L245.387,138.792 C241.522,138.309 237.529,138.06 233.398,138.06 C221.849,138.06 210.974,140.117 200.769,144.23 C190.566,148.343 181.665,154.335 174.072,162.205 C166.478,170.078 160.644,179.549 156.572,190.623 C152.496,201.697 150.461,214.234 150.461,228.236 C150.461,236.857 151.272,245.005 152.895,252.677 C154.514,260.351 156.948,267.568 160.192,274.331 C163.434,281.095 167.35,287.204 171.938,292.663 C176.015,297.431 180.409,301.451 185.109,304.752 L168.681,349.98 C167.546,353.086 168.488,356.286 170.968,357.191 L188.912,363.743 C191.393,364.648 194.787,363.033 195.922,359.926 L211.919,315.884 C218.744,317.249 226.219,317.936 234.348,317.936 C246.452,317.936 257.051,315.998 266.147,312.124 C275.243,308.25 282.719,303.206 288.573,296.995 C294.427,290.786 298.718,284.46 301.448,278.011 C304.177,271.566 305.54,265.573 305.54,260.036 C305.54,255.688 304.037,252.047 301.031,249.121 Z M191.871,263.18 C188.074,254.203 186.176,242.951 186.176,229.424 C186.176,209.176 190.465,193.553 199.049,182.557 C207.631,171.563 219.16,166.065 233.637,166.065 C234.258,166.065 234.856,166.1 235.463,166.12 L196.863,272.393 C194.973,269.646 193.308,266.577 191.871,263.18 Z" id="Shape"></path>
        </g>
    </g>
</svg>