<?xml version="1.0" ?><svg height="600" id="svg29881" version="1.1" width="900" xmlns="http://www.w3.org/2000/svg" xmlns:cc="http://creativecommons.org/ns#" xmlns:dc="http://purl.org/dc/elements/1.1/" xmlns:inkscape="http://www.inkscape.org/namespaces/inkscape" xmlns:rdf="http://www.w3.org/1999/02/22-rdf-syntax-ns#" xmlns:sodipodi="http://sodipodi.sourceforge.net/DTD/sodipodi-0.dtd" xmlns:svg="http://www.w3.org/2000/svg"><defs id="defs29883"><clipPath clipPathUnits="userSpaceOnUse" id="clipPath29920"><ellipse cx="-514.28571" cy="506.64789" id="path29922" rx="260" ry="248.57143" style="fill:#a9b3c1;fill-opacity:1;stroke:none" transform="matrix(0.68483669,0,0,0.71632344,705.09921,116.38888)"/></clipPath><clipPath clipPathUnits="userSpaceOnUse" id="clipPath3349"><path d="m 72,452.36217 756,0 c 39.888,0 72,32.112 72,72 l 0,455.99997 c 0,39.88806 -32.112,72.00006 -72,72.00006 l -756,0 c -39.888,0 -72,-32.112 -72,-72.00006 L 0,524.36217 c 0,-39.888 32.112,-72 72,-72 z" id="path3351" style="fill:#3b3c3d;fill-opacity:1;stroke:none"/></clipPath></defs><g id="layer1" transform="translate(0,-452.36218)"><g clip-path="url(#clipPath3349)" id="g4142"><rect height="600" id="rect3209" style="fill:#e74c3c;fill-opacity:1;stroke:none" width="900" x="0" y="452.36218"/><g id="g3231" style="fill:#fcd116" transform="matrix(1.3108935,0,0,1.3108935,796.79314,-529.58273)"><path d="m -496.02962,802.3139 13.77484,42.36904 44.58867,0 -36.06917,26.24399 13.74219,42.43432 -36.03653,-26.24399 -36.10181,26.24399 13.77483,-42.43432 -36.06917,-26.24399 44.58868,0 13.80747,-42.36904" id="path7406" style="fill:#f1c40f;fill-opacity:1;fill-rule:nonzero;stroke:none"/><path d="m -379.82487,780.15013 -0.91397,14.65616 13.61163,5.41854 -14.19918,3.62323 -0.97925,14.65617 -7.83403,-12.40388 -14.19918,3.62324 9.3682,-11.29406 -7.83403,-12.40388 13.61162,5.45118 9.36819,-11.3267" id="path7408" style="fill:#f1c40f;fill-opacity:1;fill-rule:nonzero;stroke:none"/><path d="m -329.71973,827.67657 -6.69156,13.05671 10.34744,10.41273 -14.46031,-2.35021 -6.72421,13.08936 -2.25358,-14.5256 -14.49296,-2.31887 13.05672,-6.62628 -2.21964,-14.49295 10.3148,10.38008 13.122,-6.62628" id="path7410" style="fill:#f1c40f;fill-opacity:1;fill-rule:nonzero;stroke:none"/><path d="m -344.76759,887.1499 4.47192,13.97068 14.72145,0.0261 -11.91425,8.58479 4.53721,13.97069 -11.84897,-8.61743 -11.91425,8.61743 4.56985,-13.97069 -11.84897,-8.61743 14.65616,0.0261 4.56985,-14.00333" id="path7412" style="fill:#f1c40f;fill-opacity:1;fill-rule:nonzero;stroke:none"/><path d="m -379.89015,931.93442 -0.97925,14.65617 13.64426,5.45117 -14.23182,3.5906 -0.9453,14.65616 -7.83403,-12.40388 -14.23182,3.62324 9.36819,-11.26141 -7.83402,-12.43652 13.64426,5.45117 9.40084,-11.3267" id="path7414" style="fill:#f1c40f;fill-opacity:1;fill-rule:nonzero;stroke:none"/></g></g></g></svg>