<?xml version="1.0" ?><svg height="600" id="svg5823" version="1.1" width="900" xmlns="http://www.w3.org/2000/svg" xmlns:cc="http://creativecommons.org/ns#" xmlns:dc="http://purl.org/dc/elements/1.1/" xmlns:inkscape="http://www.inkscape.org/namespaces/inkscape" xmlns:rdf="http://www.w3.org/1999/02/22-rdf-syntax-ns#" xmlns:sodipodi="http://sodipodi.sourceforge.net/DTD/sodipodi-0.dtd" xmlns:svg="http://www.w3.org/2000/svg"><defs id="defs5825"><clipPath clipPathUnits="userSpaceOnUse" id="clipPath5778"><rect height="480" id="rect5780" style="fill:#2980b9;fill-opacity:1;stroke:none" width="480" x="930.01068" y="-79.22789"/></clipPath><clipPath clipPathUnits="userSpaceOnUse" id="clipPath3061"><rect height="480" id="rect3063" style="fill:#2980b9;fill-opacity:1;stroke:none" width="480" x="16.000002" y="556.36218"/></clipPath><clipPath clipPathUnits="userSpaceOnUse" id="clipPath3448"><rect height="480" id="rect3450" style="fill:#2980b9;fill-opacity:1;stroke:none" width="480" x="16.000023" y="556.36218"/></clipPath><clipPath clipPathUnits="userSpaceOnUse" id="clipPath3470"><rect height="480" id="rect3472" style="fill:#2980b9;fill-opacity:1;stroke:none" width="480" x="16.000023" y="556.36218"/></clipPath><clipPath clipPathUnits="userSpaceOnUse" id="clipPath5670"><rect height="480" id="rect5672" style="fill:#2980b9;fill-opacity:1;stroke:none" width="480" x="-712" y="246.36218"/></clipPath><clipPath clipPathUnits="userSpaceOnUse" id="clipPath5674"><rect height="480" id="rect5676" style="fill:#2980b9;fill-opacity:1;stroke:none" width="480" x="16" y="556.36218"/></clipPath><clipPath clipPathUnits="userSpaceOnUse" id="clipPath5729"><rect height="480" id="rect5731" style="fill:#2980b9;fill-opacity:1;stroke:none" width="480" x="20.014456" y="549.27625"/></clipPath><clipPath clipPathUnits="userSpaceOnUse" id="clipPath5806"><rect height="480" id="rect5808" style="fill:#2980b9;fill-opacity:1;stroke:none" width="480" x="20.014456" y="549.27625"/></clipPath><clipPath clipPathUnits="userSpaceOnUse" id="clipPath4267"><rect height="600" id="rect4269" style="fill:#2b4896;fill-opacity:1;stroke:none" width="900" x="-3.8383484e-007" y="452.36218"/></clipPath><clipPath clipPathUnits="userSpaceOnUse" id="clipPath3376"><path d="m 71.999995,452.36217 756.000005,0 c 39.888,0 72,32.112 72,72 l 0,455.99997 c 0,39.88806 -32.112,72.00006 -72,72.00006 l -756.000005,0 c -39.888,0 -72,-32.112 -72,-72.00006 l 0,-455.99997 c 0,-39.888 32.112,-72 72,-72 z" id="path3378" style="fill:#3b3c3d;fill-opacity:1;stroke:none"/></clipPath><clipPath clipPathUnits="userSpaceOnUse" id="clipPath3380"><path d="m 738.89574,292.86723 -403.20001,0 c -21.2736,0 -38.4,25.6896 -38.4,57.6 l 0,364.79998 c 0,31.91044 17.1264,57.60004 38.4,57.60004 l 403.20001,0 c 21.2736,0 38.4,-25.6896 38.4,-57.60004 l 0,-364.79998 c 0,-31.9104 -17.1264,-57.6 -38.4,-57.6 z" id="path3382" style="fill:#3b3c3d;fill-opacity:1;stroke:none"/></clipPath><clipPath clipPathUnits="userSpaceOnUse" id="clipPath3384"><path d="m 58.414453,549.27624 403.200007,0 c 21.2736,0 38.4,25.6896 38.4,57.6 l 0,364.79998 c 0,31.91048 -17.1264,57.60008 -38.4,57.60008 l -403.200007,0 c -21.2736,0 -38.4,-25.6896 -38.4,-57.60008 l 0,-364.79998 c 0,-31.9104 17.1264,-57.6 38.4,-57.6 z" id="path3386" style="fill:#3b3c3d;fill-opacity:1;stroke:none"/></clipPath><clipPath clipPathUnits="userSpaceOnUse" id="clipPath3388"><path d="m 71.999995,452.36217 756.000005,0 c 39.888,0 72,32.112 72,72 l 0,455.99997 c 0,39.88806 -32.112,72.00006 -72,72.00006 l -756.000005,0 c -39.888,0 -72,-32.112 -72,-72.00006 l 0,-455.99997 c 0,-39.888 32.112,-72 72,-72 z" id="path3390" style="fill:#3b3c3d;fill-opacity:1;stroke:none"/></clipPath></defs><g id="layer1" transform="translate(0,-452.36218)"><g id="g5733"><rect clip-path="url(#clipPath3388)" height="600" id="rect2999" style="fill:#2b4896;fill-opacity:1;stroke:none" width="900" x="-3.8383484e-007" y="452.36218"/><g clip-path="url(#clipPath3384)" id="g5769" transform="matrix(1.875,0,0,1.25,-37.527105,-234.23313)"/><g clip-path="url(#clipPath3380)" id="g5759" transform="matrix(-1.875,0,0,1.25,1457.4295,86.278133)"/><g clip-path="url(#clipPath3376)" id="g4249"><g id="g5755" transform="matrix(1.875,0,0,1.25,-37.527105,-234.23313)"><path d="m 498.79506,514.95268 -279.32259,286.20248 50.25,0 0,15.90625 264.69759,-269.95248 z" id="rect3435" style="fill:#ffffff;fill-opacity:1;stroke:none"/><path d="m 511.39777,519.54497 -272.16634,276.04623 18.11667,-0.8 0,0.875 263.47884,-266.42123 z" id="rect5381" style="fill:#e32d3c;fill-opacity:1;stroke:none"/></g><path d="M 435.86008,792.2548 -87.766849,431.07366 6.3878622,433.3891 7.4872653,413.5198 504.83412,753.72835 Z" id="path5781" style="fill:#ffffff;fill-opacity:1;stroke:none"/><path d="m 455.73894,788.00007 -510.920057,-348.1647 37.942944,0.93308 0.06048,-1.093 495.307313,335.74132 z" id="path5783" style="fill:#e32d3c;fill-opacity:1;stroke:none"/><g id="g4216" transform="matrix(-1.8737256,-0.04607845,-0.06911768,1.2491504,1496.1884,87.426104)"><path d="m 498.79506,514.95268 -279.32259,286.20248 50.25,0 0,15.90625 264.69759,-269.95248 z" id="path4206" style="fill:#ffffff;fill-opacity:1;stroke:none" transform="matrix(0.99932033,0.03686276,0.03686276,-0.99932033,248.26875,1329.6434)"/><path d="m 511.39777,519.54497 -272.16634,276.04623 18.11667,-0.8 0,0.875 263.47884,-266.42123 z" id="path4208" style="fill:#e32d3c;fill-opacity:1;stroke:none" transform="matrix(0.99932033,0.03686276,0.03686276,-0.99932033,248.26875,1329.6434)"/><path d="m 530.84167,518.31802 -288.70286,281.32216 50.25,0 0,15.90625 274.07786,-265.07216 z" id="path4210" style="fill:#ffffff;fill-opacity:1;stroke:none"/><path d="m 541.31105,522.11031 -281.54661,271.16591 20.25,0 0,0.875 272.85911,-261.54091 z" id="path4212" style="fill:#e32d3c;fill-opacity:1;stroke:none"/></g><rect height="600" id="rect3001" style="fill:#ffffff;fill-opacity:1;stroke:none" width="140" x="380" y="452.36218"/><rect height="900" id="rect3003" style="fill:#ffffff;fill-opacity:1;stroke:none" transform="matrix(0,1,-1,0,0,0)" width="130" x="687.36218" y="-900"/><rect height="600" id="rect3005" style="fill:#e32d3c;fill-opacity:1;stroke:none" width="85" x="407.5" y="452.36218"/><rect height="900" id="rect3008" style="fill:#e32d3c;fill-opacity:1;stroke:none" transform="matrix(0,1,-1,0,0,0)" width="80" x="712.36218" y="-900"/></g></g></g></svg>