<?xml version="1.0" ?><!DOCTYPE svg  PUBLIC '-//W3C//DTD SVG 1.1//EN'  'http://www.w3.org/Graphics/SVG/1.1/DTD/svg11.dtd'><svg enable-background="new 0 0 500 500" height="500px" id="Layer_1" version="1.1" viewBox="0 0 500 500" width="500px" xml:space="preserve" xmlns="http://www.w3.org/2000/svg" xmlns:xlink="http://www.w3.org/1999/xlink"><g><path d="M197.083,218.292c-4.882-4.882-12.796-4.882-17.678,0L35.391,362.306c-4.881,4.882-4.881,12.796,0,17.678   c2.441,2.44,5.64,3.661,8.839,3.661s6.398-1.221,8.839-3.661l135.175-135.175l0.119,0.119l17.678-17.678L197.083,218.292z" fill="#333333"/><path d="M465.83,124.128c-0.002-0.396-0.021-0.792-0.061-1.188c-0.019-0.191-0.054-0.378-0.082-0.567   c-0.031-0.214-0.056-0.429-0.098-0.642c-0.042-0.214-0.101-0.422-0.154-0.632c-0.047-0.185-0.087-0.371-0.142-0.554   c-0.062-0.206-0.139-0.404-0.211-0.604c-0.066-0.185-0.127-0.369-0.202-0.551c-0.078-0.188-0.169-0.368-0.256-0.552   c-0.088-0.186-0.17-0.374-0.268-0.556c-0.095-0.178-0.203-0.347-0.306-0.519c-0.106-0.178-0.207-0.357-0.323-0.531   c-0.128-0.191-0.27-0.371-0.407-0.555c-0.107-0.142-0.206-0.289-0.32-0.428c-0.523-0.638-1.108-1.223-1.746-1.746   c-0.143-0.117-0.293-0.219-0.44-0.329c-0.179-0.134-0.355-0.273-0.542-0.397c-0.177-0.119-0.361-0.222-0.543-0.331   c-0.168-0.1-0.333-0.205-0.505-0.298c-0.187-0.101-0.379-0.186-0.57-0.275c-0.178-0.084-0.354-0.173-0.537-0.249   c-0.188-0.077-0.379-0.14-0.57-0.208c-0.194-0.07-0.386-0.145-0.585-0.205c-0.192-0.058-0.388-0.101-0.582-0.149   c-0.201-0.051-0.398-0.106-0.603-0.147c-0.229-0.045-0.459-0.072-0.689-0.105c-0.173-0.024-0.344-0.058-0.52-0.074   c-0.413-0.041-0.827-0.062-1.241-0.062h-70.15c-6.904,0-12.5,5.596-12.5,12.5c0,6.903,5.596,12.5,12.5,12.5h39.978L269.309,290.518   h0l-17.678,17.678l8.839,8.839c4.882,4.882,12.796,4.882,17.678,0l162.684-162.684v39.978c0,6.903,5.597,12.5,12.5,12.5   c6.904,0,12.5-5.597,12.5-12.5v-70.155C465.832,124.157,465.83,124.144,465.83,124.128z" fill="#333333"/><rect fill="#333333" height="89.474" transform="matrix(0.7071 -0.7071 0.7071 0.7071 -122.2841 240.2253)" width="25" x="216.335" y="222.986"/></g></svg>